<?xml version="1.0" encoding="utf-8"?>
<!-- Generator: Adobe Illustrator 18.1.0, SVG Export Plug-In . SVG Version: 6.00 Build 0)  -->
<!DOCTYPE svg PUBLIC "-//W3C//DTD SVG 1.1//EN" "http://www.w3.org/Graphics/SVG/1.1/DTD/svg11.dtd">
<svg version="1.1" xmlns="http://www.w3.org/2000/svg" xmlns:xlink="http://www.w3.org/1999/xlink" x="0px" y="0px" width="488px"
	 height="412px" viewBox="0 0 488 412" enable-background="new 0 0 488 412" xml:space="preserve">
<g id="White_50_x25__Opacity">
</g>
<g id="_x23_BE993A">
	<g>
		<path fill="#C09801" d="M212.6,63.7c1.1,1.1,2.6,1.4,4.1,1.1V69c-1.4,0.4-2.8,1-3.5,1.7c-2.1,2.1-2.4,5.3-0.5,7.1
			c1.1,1.1,2.6,1.4,4.1,1.1v4.2c-1.4,0.4-2.8,1-3.5,1.7c-2.1,2.1-2.4,5.3-0.5,7.1c1.1,1.1,2.6,1.4,4.1,1.1v4.2
			c-1.4,0.4-2.8,1-3.5,1.7c-2.1,2.1-2.4,5.3-0.5,7.1c1.1,1.1,2.6,1.4,4.1,1.1v4.2c-1.4,0.4-2.8,1-3.5,1.7c-2.1,2.1-2.4,5.3-0.5,7.1
			s5,1.6,7.1-0.5c2.1-2.1,2.8-9.4,2.8-9.4s-2,0.2-4.1,0.6v-4.5c0.4-0.2,0.9-0.5,1.2-0.8c2.1-2.1,2.8-9.4,2.8-9.4s-2,0.2-4.1,0.6
			v-4.5c0.4-0.2,0.9-0.5,1.2-0.8c2.1-2.1,2.8-9.4,2.8-9.4s-2,0.2-4.1,0.6v-4.5c0.4-0.2,0.9-0.5,1.2-0.8c2.1-2.1,2.8-9.4,2.8-9.4
			s-2,0.2-4.1,0.6V64c0.4-0.2,0.9-0.5,1.2-0.8c2.1-2.1,2.8-9.4,2.8-9.4s-2,0.2-4.1,0.6v-9.8c0-0.6-0.3-1-0.8-1c-0.6,0-1,0.4-1,1
			v10.3c-1.4,0.4-2.8,1-3.5,1.7C211,58.7,210.7,61.9,212.6,63.7z"/>
		<path fill="#C09801" d="M183.5,101.6c0.8,0.8,2,1.1,3.1,0.9v4.6c-1.1,0.3-2.1,0.8-2.7,1.3c-1.7,1.7-1.9,4.3-0.4,5.8
			c0.8,0.8,2,1.1,3.1,0.9v4.6c-1.1,0.3-2.1,0.8-2.7,1.3c-1.7,1.7-1.9,4.3-0.4,5.8c1.5,1.5,4.1,1.3,5.8-0.4c1.7-1.7,2.3-7.7,2.3-7.7
			s-1.5,0.1-3.1,0.5v-4.9c0.2-0.2,0.6-0.4,0.8-0.6c1.7-1.7,2.3-7.7,2.3-7.7s-1.5,0.1-3.1,0.5v-4.9c0.2-0.2,0.6-0.4,0.8-0.6
			c1.7-1.7,2.3-7.7,2.3-7.7s-1.5,0.1-3.1,0.5v-7.5c0-0.6-0.4-1-1-1s-0.9,0.4-0.9,1v8c-1.1,0.3-2.1,0.8-2.7,1.3
			C182.2,97.5,182,100.1,183.5,101.6z"/>
		<path fill="#C09801" d="M332.1,364.4c0,0-0.6,5.7,2.5,8.8c3.1,3.1,8.8,2.5,8.8,2.5s0.6-5.7-2.5-8.8
			C337.8,363.8,332.1,364.4,332.1,364.4z"/>
		<path fill="#C09801" d="M336.7,29.3c3.1-3.1,2.5-8.8,2.5-8.8s-5.7-0.6-8.8,2.5c-3.1,3.1-2.5,8.8-2.5,8.8S333.5,32.5,336.7,29.3z"
			/>
		<path fill="#C09801" d="M111.9,53.4c3.1,3.1,8.8,2.5,8.8,2.5s0.6-5.7-2.5-8.8c-3.1-3.1-8.8-2.5-8.8-2.5S108.7,50.3,111.9,53.4z"/>
		<path fill="#C09801" d="M376.5,165c0,0-0.6,5.7,2.5,8.8c3.1,3.1,8.8,2.5,8.8,2.5s0.6-5.7-2.5-8.8C382.2,164.4,376.5,165,376.5,165
			z"/>
		<path fill="#C09801" d="M282.9,11.4c0,0,0.6-5.7-2.5-8.8c-3.1-3.1-8.8-2.5-8.8-2.5s-0.6,5.7,2.5,8.8
			C277.2,12,282.9,11.4,282.9,11.4z"/>
		<path fill="#C09801" d="M160.2,370.4c-3.1,3.1-2.5,8.8-2.5,8.8s5.7,0.6,8.8-2.5c3.1-3.1,2.5-8.8,2.5-8.8S163.4,367.3,160.2,370.4z
			"/>
		<path fill="#C09801" d="M180.9,10.5c0,0-5.7-0.6-8.8,2.5c-3.1,3.1-2.5,8.8-2.5,8.8s5.7,0.6,8.8-2.5
			C181.5,16.2,180.9,10.5,180.9,10.5z"/>
		<path fill="#C09801" d="M53.7,135.7c3.1-3.1,2.5-8.8,2.5-8.8s-5.7-0.6-8.8,2.5c-3.1,3.1-2.5,8.8-2.5,8.8S50.6,138.8,53.7,135.7z"
			/>
		<polygon fill="#C09801" points="235.5,184.5 235.5,215.4 242.4,212.4 245.8,220.6 252.7,217.8 249.3,209.6 256.7,206.5 		"/>
		<path fill="#C09801" d="M389.4,295.7c-2.2,0-3.7,0.1-3.7,0.2l-1.6,0.2l-0.2,1.6c-0.1,0.8-1.8,18.5,8.3,28.7
			c7.4,7.4,18.8,8.5,25,8.5c2.2,0,3.7-0.1,3.7-0.2l1.6-0.2l0.2-1.6c0.1-0.8,1.8-18.5-8.3-28.7C407,296.8,395.6,295.7,389.4,295.7z
			 M395.1,323.5c-5.9-5.9-7.1-15.2-7.3-20.8l28.1,28.1C410.2,330.6,401,329.4,395.1,323.5z M390.4,299.7c5.7,0.1,15.2,1.3,21.2,7.3
			c6,6,7.2,15.6,7.3,21.2L390.4,299.7z"/>
		<path fill="#C09801" d="M127.3,82.2l1.6,0.2c0.1,0,1.4,0.1,3.5,0.1c5.8,0,16.5-1,23.4-8c9.6-9.6,7.9-26.2,7.8-26.9l-0.2-1.6
			l-1.6-0.2c-0.1,0-1.4-0.1-3.5-0.1c-5.8,0-16.5,1-23.4,8c-9.6,9.6-7.9,26.2-7.8,26.9L127.3,82.2z M159.8,52.6
			c-0.2,5.2-1.4,13.6-6.8,19c-5.4,5.4-13.7,6.6-19,6.8L159.8,52.6z M137.8,56.4c5.5-5.5,14-6.6,19.4-6.8L131,75.8
			C131.1,70.6,132.3,61.9,137.8,56.4z"/>
		<path fill="#C09801" d="M82.9,214.8l-0.2-1.6l-1.6-0.2c-0.1,0-1.7-0.2-4.3-0.2c-7.1,0-20.4,1.3-28.9,9.8
			c-11.8,11.8-9.7,32.3-9.6,33.2l0.2,1.6l1.6,0.2c0.1,0,1.7,0.2,4.3,0.2c7.1,0,20.4-1.3,28.9-9.8C85,236.2,83,215.6,82.9,214.8z
			 M42.1,251.2c0-6.3,1.2-18.3,8.6-25.7c7.4-7.4,19.1-8.6,25.7-8.6L42.1,251.2z M70.5,245.1c-7.2,7.2-18.7,8.5-25.3,8.6l33.9-33.9
			C79,226.3,77.7,237.9,70.5,245.1z"/>
		<path fill="#C09801" d="M108,356.2c-0.8,0-1.4,0.1-1.4,0.1l-1.6,0.2l-0.2,1.6c0,0.3-0.7,6.7,3.1,10.5c2.8,2.8,6.9,3.2,9.1,3.2
			c0.8,0,1.4-0.1,1.4-0.1l1.6-0.2l0.2-1.6c0-0.3,0.7-6.7-3.1-10.5C114.3,356.6,110.2,356.2,108,356.2z M110.8,365.6
			c-1.5-1.5-1.9-3.8-2-5.5c1.5,0.1,4,0.5,5.5,2c1.5,1.5,1.9,3.8,2,5.5C114.7,367.5,112.2,367.1,110.8,365.6z"/>
		<path fill="#C09801" d="M424.7,168.9l1.6,0.2c0,0,0.5,0.1,1.4,0.1c2.2,0,6.3-0.4,9.1-3.2c3.8-3.8,3.1-10.2,3.1-10.5l-0.2-1.6
			l-1.6-0.2c0,0-0.5-0.1-1.4-0.1c-2.2,0-6.3,0.4-9.1,3.2c-3.8,3.8-3.1,10.2-3.1,10.5L424.7,168.9z M430.4,159.7
			c1.5-1.5,3.9-1.9,5.5-2c-0.1,1.6-0.5,4-2,5.5c-1.5,1.5-3.9,1.9-5.5,2C428.6,163.5,429,161.1,430.4,159.7z"/>
		<path fill="#C09801" d="M289.7,393.7l-1.6-0.2c0,0-0.5-0.1-1.4-0.1c-2.2,0-6.3,0.4-9.1,3.2c-3.8,3.8-3.1,10.2-3.1,10.5l0.2,1.6
			l1.6,0.2c0,0,0.5,0.1,1.4,0.1c2.2,0,6.3-0.4,9.1-3.2c3.8-3.8,3.1-10.2,3.1-10.5L289.7,393.7z M283.9,402.9c-1.5,1.5-3.9,1.9-5.5,2
			c0.1-1.6,0.5-4,2-5.5c1.5-1.5,3.9-1.9,5.5-2C285.8,399.1,285.4,401.4,283.9,402.9z"/>
		<path fill="#C09801" d="M378.2,337.7l-1.6-0.2c-0.3,0-6.7-0.7-10.5,3.1c-2.8,2.8-3.2,6.9-3.2,9.1c0,0.8,0.1,1.4,0.1,1.4l0.2,1.6
			l1.6,0.2c0.3,0,6.7,0.7,10.5-3.1c2.8-2.8,3.2-6.9,3.2-9.1c0-0.8-0.1-1.4-0.1-1.4L378.2,337.7z M372.5,346.9
			c-1.5,1.5-3.8,1.9-5.5,2c0.1-1.5,0.5-4,2-5.5c1.5-1.5,3.8-1.9,5.5-2C374.3,343,374,345.4,372.5,346.9z"/>
		<path fill="#C09801" d="M295.4,72l1.6,0.2c0,0,0.5,0.1,1.4,0.1c2.2,0,6.3-0.4,9.1-3.2c3.8-3.8,3.1-10.2,3.1-10.5l-0.2-1.6
			l-1.6-0.2c0,0-0.5-0.1-1.4-0.1c-2.2,0-6.3,0.4-9.1,3.2c-3.8,3.8-3.1,10.2-3.1,10.5L295.4,72z M301.2,62.8c1.5-1.5,3.9-1.9,5.5-2
			c-0.1,1.6-0.5,4-2,5.5c-1.5,1.5-3.9,1.9-5.5,2C299.3,66.6,299.7,64.3,301.2,62.8z"/>
		<path fill="#C09801" d="M90.2,105.2c0.8,0,1.4-0.1,1.4-0.1l1.6-0.2l0.2-1.6c0-0.3,0.7-6.7-3.1-10.5c-2.8-2.8-6.9-3.2-9.1-3.2
			c-0.8,0-1.4,0.1-1.4,0.1L78.1,90L78,91.6c0,0.3-0.7,6.7,3.1,10.5C83.8,104.8,87.9,105.2,90.2,105.2z M87.4,95.7
			c1.5,1.5,1.9,3.8,2,5.5c-1.5-0.1-4-0.5-5.5-2c-1.5-1.5-1.9-3.8-2-5.5C83.4,93.8,85.9,94.2,87.4,95.7z"/>
		<path fill="#C09801" d="M49.5,196.1c0.8,0,1.4-0.1,1.4-0.1l1.6-0.2l0.2-1.6c0-0.3,0.7-6.7-3.1-10.5c-2.8-2.8-6.9-3.2-9.1-3.2
			c-0.8,0-1.4,0.1-1.4,0.1l-1.6,0.2l-0.2,1.6c0,0.3-0.7,6.7,3.1,10.5C43.1,195.6,47.2,196.1,49.5,196.1z M46.7,186.6
			c1.5,1.5,1.9,3.8,2,5.5c-1.5-0.1-4-0.5-5.5-2c-1.5-1.5-1.9-3.8-2-5.5C42.7,184.7,45.2,185.1,46.7,186.6z"/>
		<path fill="#C09801" d="M119.4,295H91.3c-1.6,0-2.8,1.3-2.8,2.8v4.9c-1.8,0.1-5.5,0.5-8,2.9c-2.2,2-3,4.8-3,8.4s0.8,6.4,3,8.4
			c2.5,2.3,6.2,2.8,8,2.9v3.8c0,2.2,1.8,4,4,4h27.8c1.7,0,3.1-1.4,3.1-3.1V319h-18.7c-0.1,0-0.2-0.1-0.2-0.2V315h-5v-7h13v1h4v1h5v3
			h1v2h1v-16.1C123.5,296.8,121.6,295,119.4,295z M88.5,321.2c-1.3-0.1-3.8-0.4-5.3-1.8c-1.3-1.2-1.7-3-1.7-5.4s0.4-4.2,1.7-5.4
			c1.6-1.4,4.1-1.8,5.3-1.8V321.2z"/>
		<path fill="#C09801" d="M485.6,263.4c-48.2,0-93-14.8-130.1-40.1v-32c11.8,7.1,24.8,13.2,38,17.7v24.3l2-0.6
			c3.6-0.9,10.5-5,10.5-13.4c0-2.8-0.8-5.1-1.9-7c17.1,4.8,35,7.3,53.6,7.3c1.1,0,2-0.9,2-2c0-1.1-0.9-2-2-2
			c-16.1,0-31.7-2-46.7-5.7c1.6-0.9,3.1-2.3,4.4-4.3c4.7-7.1,1.2-14.2-1.4-17l-1.7-1.9l-13.2,19.9c-15.5-4.9-30.1-11.6-43.7-20V152
			c0-9-5.2-16-17-16h-39c-1.8-5-4.4-7.6-6.9-11.4c1.5,0.6,3.1,0.9,5,0.9l0.2,0c8.5-0.1,12.4-7,13.3-10.7l0.6-1.8h-26.1
			c-14.9-27.5-23.3-59.4-23.3-92.8c0-1.1-0.9-2-2-2s-2,0.9-2,2c0,29.3,6.4,57.2,17.8,82.3l-7.1,10.7c-9.5-25.2-14.7-52.5-14.7-81
			c0-1.1-0.9-2-2-2s-2,0.9-2,2c0,20.1,2.5,39.6,7.3,58.2l-17.9,17.9l2.2,1.3c0.1,0.1,3.3,1.9,7.5,1.9c3.6,0,6.8-1.4,9.4-4
			c1.2-1.2,2-2.4,2.6-3.6c1.5,4.5,3,9,4.7,13.4l-4.2,6.3l2.4,0.8c0.2,0.1,2.1,0.7,4.8,0.7c0.1,0,0.1,0,0.2,0c1.6,3.6,3.2,7.4,5,10.9
			h-63.9V49.5c1.5-0.6,2.9-2.2,3-4.2c0.1-1.7-1.9-4.5-3-6.2v-9.4c0-0.6-0.4-1-1-1s-1,0.4-1,1V39c-1.2,1.6-2.8,4.3-2.9,6
			c-0.1,2.3,1,4.3,2.9,4.7v4.8c-1.2-1.1-3.9-1.8-6-2.2V39.2c0-0.6-0.4-1-1-1s-1,0.4-1,1v12.8c-0.8-0.1-0.9-0.2-0.9-0.2
			s-0.1,3.8,0.9,6.8V66c-0.8-0.1-0.9-0.2-0.9-0.2s-0.1,3.8,0.9,6.8v7.5c-0.8-0.1-0.9-0.2-0.9-0.2s-0.1,3.8,0.9,6.8v7.5
			c-0.8-0.1-0.9-0.2-0.9-0.2s-0.1,3.8,0.9,6.8v7.5c-0.8-0.1-0.9-0.2-0.9-0.2s0.7,7.3,2.8,9.4c1.9,1.9,4.2,2.3,6.1,1.1V136h-27V89
			c1.2-0.5,1.9-1.8,2-3.4c0.1-1.5-1-4-2-5.3V72c0-0.6-0.4-1-1-1s-1,0.4-1,1v8.2c-1.1,1.2-1.8,3.7-1.9,5.2c-0.1,1.8,0.4,3.4,1.9,3.8
			v4.6c-1-0.8-2.4-1.3-4-1.6v-8.8c0-0.6-0.4-1-1-1s-1,0.4-1,1l0.2,8.4c-0.6-0.1-1-0.1-1-0.1s0.3,2.7,1,4.9v7.9c-0.6-0.1-1-0.1-1-0.1
			s0.3,2.7,1,4.9v7.9c-0.6-0.1-1-0.1-1-0.1s0.6,6,2.3,7.7c1.5,1.5,3,1.8,4.5,1v10h-29c-9,0-15.9,7-15.9,16v16h-6v-30
			c3-0.7,5.8-2.6,7.9-4.7c2.1-2.1,3.6-4.3,4.4-7.3h4.8c0-4.7-1.9-9.5-5-12.6c-3-3-7.4-5-13.9-5c-23.9,0-43.2,20.7-43.2,44.8
			c0,1-0.1,1.9,0,2.9v35.6c5.5,0,10.9-2.3,14.4-5.9c0.9,0.8,1.8,1.6,2.7,2.3c3.5,12.2,14.5,21.2,27.9,21.2V182h6v80.1
			c0,9,7,15.9,15.9,15.9h86.3v4.4c0,2.2-1.8,4.6-4,4.6h-67.8c-11,0-20.4,8.3-20.4,19.3s9.4,19.7,20.4,19.7h157.5c2.2,0,4,2,4,4.2
			s-1.8,3.8-4,3.8H200.8c-11,0-20.3,9.1-20.3,20.1s9.3,19.9,20.3,19.9h35.9c2.2,0,4,1.9,4,4.1s-1.8,4-4,4h-8c-4.4,0-7.2,3.6-7.2,8
			s2.8,8,7.2,8h8c11,0,19.8-8.9,19.8-19.9s-8.8-19.9-19.8-19.9h-35.9c-2.2,0-4-1.8-4-4s1.8-4.1,4-4.1h121.6c11,0,20.1-8.8,20.1-19.8
			s-9.1-20.2-20.1-20.2H164.9c-2.2,0-4-1.5-4-3.7s1.8-4.3,4-4.3h67.8c5.5,0,10.4-1.9,14-5.5c1.2-1.2,2.2-2.5,3.1-4
			c1.8-3,2.6-6.4,2.6-10.2V278h47v14.3c0,5.9,5.2,10.6,11.2,10.6h17.7c5.9,0,10.9-4.8,10.9-10.6l0.1-14.3c9,0,16-7,16-15.9v-34
			c7.5,5,15.9,9.8,24,13.9v25l1.9-0.6c3.6-0.9,10.5-5,10.5-13.4c0-2.1-0.4-3.9-1.1-5.4c29,12.8,61.1,19.9,94.7,19.9c1.1,0,2-0.9,2-2
			C487.5,264.3,486.7,263.4,485.6,263.4z M412.5,193.6c1.1,2.3,2.1,6-0.5,9.9c-1.9,2.9-4.6,4.3-8.1,4.3c-0.3,0-0.5,0-0.8,0
			L412.5,193.6z M397.5,210.7c2.2,1.3,4.5,3.8,4.5,8.5c0,4.7-2.3,7.2-4.5,8.5V210.7z M256,104.7c-1.9,1.9-4.1,2.8-6.6,2.8
			c-1.1,0-2.1-0.2-2.9-0.4l12-12C259.1,97.6,259.3,101.4,256,104.7z M128.5,126h8c-1.5,4.9-6.2,7.4-8,8V126z M87.9,187.3V172
			c1.9,4,4.3,7.8,7.2,11C93.2,185,90.7,186.5,87.9,187.3z M97.6,179.7c-5.2-6.2-8.7-13.9-9.6-22.4c6.6,1.8,11.4,7.8,11.4,15
			C99.4,174.9,98.8,177.5,97.6,179.7z M124.7,205.1c-7.8-1.2-14.5-6.1-18.2-12.8c5.4,3.1,11.6,5.1,18.2,5.7V205.1z M124.7,193.9
			c-7.7-0.7-14.7-3.6-20.6-8.1c-0.4-1.8-0.7-3.7-0.7-5.7c0-12.6,9.2-23,21.3-24.9V193.9z M124.5,151.2c-9.6,1.3-17.5,7.3-21.8,15.6
			c-2-6.9-7.7-12.3-14.8-13.7c0.1-21.1,16-38.1,36.6-40.1V151.2z M134.5,178h-6v-6h6V178z M306.1,117c-1.2,2.2-3.7,4.5-8.4,4.5
			l-0.2,0c-4.6,0-7.1-2.4-8.4-4.5H306.1z M268.7,120.9l9.2-14c1.1,2.3,2,5.9-0.5,9.9C274.2,121.7,268.7,120.9,268.7,120.9z
			 M273.5,124.5c2.5-0.8,5.1-2.3,7.2-5.5c0.8-1.2,1.4-2.5,1.7-3.7c3.9,7.1,8.2,14.2,12.9,20.7h-16.5
			C277,132.3,275.2,128.3,273.5,124.5z M202.5,61.6c1.8,1.4,4.3,1.7,6,0.6v6.3c-1.2-1.1-3.9-1.8-6-2.2V61.6z M202.5,75.7
			c1.8,1.4,4.3,1.7,6,0.6v6.3c-1.2-1.1-3.9-1.8-6-2.2V75.7z M202.5,89.9c1.8,1.4,4.3,1.7,6,0.6v6.3c-1.2-1.1-3.9-1.8-6-2.2V89.9z
			 M202.5,108.7V104c1.8,1.4,4.3,1.7,6,0.6v6.3C207.2,109.8,204.6,109.1,202.5,108.7z M175.5,100c1.4,1,2.7,1.2,4,0.5v6.1
			c-1-0.8-2.4-1.3-4-1.6V100z M175.5,117.7v-5c1.4,1,2.7,1.2,4,0.5v6.1C178.4,118.6,177,118.1,175.5,117.7z M150.4,274
			c-6.8,0-12.3-5.2-12.3-11.9V259h98.5v15L150.4,274z M248.6,282.4c0,8.8-7.2,15.6-15.9,15.6h-67.8c-4.4,0-8,3.9-8,8.3
			c0,4.4,3.6,7.7,8,7.7h157.5c8.8,0,16.1,7.4,16.1,16.2c0,8.8-7.3,15.8-16.1,15.8H200.8c-4.4,0-8,3.7-8,8.1c0,4.4,3.6,7.9,8,7.9
			h35.9c8.8,0,15.9,7.3,15.9,16.1c0,8.8-7.2,15.9-15.9,15.9h-8c-2.2,0-4-1.8-4-4c0-2.2,1.8-4,4-4h8c4.4,0,8-3.5,8-7.9
			c0-4.4-3.6-8-8-8h-35.9c-8.8,0-15.9-7.2-15.9-15.9c0-8.8,7.2-16.1,15.9-16.1h121.6c4.4,0,8-3.4,8-7.8c0-4.4-3.6-8-8-8L164.9,322
			c-8.8,0-15.9-6.9-15.9-15.7c0-8.8,7.2-15.3,15.9-15.3h67.8c4.4,0,7.8-4.2,7.8-8.7v-23.9c0-2.1,2-3.9,4.2-3.9c2.2,0,4,1.8,4,4
			V282.4z M299.5,274h-47v-15h47V274z M335.5,292.3c0,3.7-3.4,6.7-7.1,6.7h-17.7c-3.7,0-7.2-3-7.2-6.7V286h32V292.3z M335.5,282h-32
			v-28.7c0-3.8,3.5-7.3,7.2-7.3h17.7c3.7,0,7.1,3.5,7.1,7.3L335.5,282z M351.5,262.1c0,6.8-5.3,11.9-12,11.9v-15.1h12V262.1z
			 M351.5,255.1h-12.4v-1.8c0-6-4.8-11.3-10.7-11.3h-17.7c-5.9,0-10.7,5.3-10.7,11.3v1.8h-48.1c-1.1-2.4-3.6-4.2-6.4-4.6v-6.8
			l3.8-3.6c0.4-0.4,0.4-1,0-1.4c-0.4-0.4-1-0.4-1.4,0l-3.2,3.2l-3.2-3.2c-0.4-0.4-1-0.4-1.4,0c-0.4,0.4-0.4,1,0,1.4l3.6,3.6v6.8
			c-2.8,0.4-5.1,2.1-6.2,4.5h-99V152c0-6.8,5.2-12,12-12h126c10.7,20.7,24.4,39.5,40.5,56.1l-17.2,17.2l2.2,1.3
			c0.1,0.1,3.3,1.9,7.5,1.9c3.6,0,6.8-1.4,9.4-4c3.4-3.4,4.2-7.2,4-10.6c8.9,8.5,18.5,16.3,28.6,23.4V255.1z M318.5,200.2
			c0.7,2.4,0.9,6.3-2.4,9.6c-1.9,1.9-4.1,2.8-6.6,2.8c-1.1,0-2.1-0.2-2.9-0.4L318.5,200.2z M326.7,199h17c-1.3,2.2-3.8,5.3-8.5,5.3
			C330.5,204.3,327.9,201.2,326.7,199z M351.5,220.5c-5.4-3.9-10.7-8-15.7-12.3c8-0.3,11.9-6.9,12.8-10.5l0.6-2.5h-27.5
			c-16.2-16.3-30-34.7-40.8-55.2h17.3c14.6,19.4,32.7,35.9,53.3,48.9V220.5z M351.5,184.1c-18.5-12-34.8-26.8-48.2-44.1h36
			c6.8,0,12.3,5.2,12.3,12V184.1z M383.5,261.4v-17c2.2,1.3,4.5,3.8,4.5,8.5S385.7,260.1,383.5,261.4z"/>
		<circle fill="#C09801" cx="319.9" cy="292.4" r="2.7"/>
		<circle fill="#C09801" cx="114.5" cy="125.5" r="2.9"/>
		<path fill="#C09801" d="M377.2,122.4l0.2,1.6l1.6,0.2c0.1,0,1.4,0.1,3.6,0.1c6,0,17-1.1,24.2-8.2c9.9-9.9,8.2-27.1,8.1-27.8
			l-0.2-1.6l-1.6-0.2c-0.1,0-1.4-0.1-3.6-0.1c-5.1,0-14.9-0.2-24.4,8.3c-0.1,0.1-0.1,0.1-0.2,0.2c-2.4,2.2-4,5-5.2,8
			C376.3,111.6,377.1,122,377.2,122.4z M411,93.4c-0.2,5.4-1.4,14.2-7,19.9c-5.6,5.6-14.3,6.9-19.9,7L411,93.4z M388.1,97.4
			c5.7-5.7,14.7-6.9,20.2-7l-27.3,27.3C381.2,112.3,382.3,103.2,388.1,97.4z"/>
		<path fill="#C09801" d="M346.5,89.8c1.1,0.4,2.2,0.7,3.3,1c-0.4,1-1.2,3-1.2,5.3c0,3.3,1.5,6,1.5,6s1.5-2.7,1.5-6
			c0-2.2-0.6-4-1.1-5.1c1.9,0.5,3.8,0.7,5.5,0.9c6.3,0.7,11.1,0,11.1,0l1.6-0.2l0.2-1.6c0.1-0.9,2.1-21.4-9.6-33.2
			c-8.5-8.5-21.8-9.8-28.9-9.8c-2.6,0-4.2,0.2-4.3,0.2l-1.6,0.2l-0.2,1.6c-0.1,0.9-2.4,21.7,9.6,33.2
			C337.8,86,342.2,88.3,346.5,89.8z M356.5,59.8c7.3,7.3,8.5,18.9,8.6,25.3l-33.9-33.9C337.8,51.2,349.2,52.5,356.5,59.8z
			 M362.5,88.1c-6.6,0-18.3-1.3-25.7-8.6c-7.4-7.4-8.6-19.4-8.6-25.7L362.5,88.1z"/>
		<path fill="#C09801" d="M379.2,96.1c0-3.3-1.5-6-1.5-6s-1.5,2.7-1.5,6c0,3.3,1.5,6,1.5,6S379.2,99.4,379.2,96.1z"/>
	</g>
</g>
</svg>
